<?xml version="1.0" standalone="no"?>
<!DOCTYPE svg PUBLIC "-//W3C//DTD SVG 20010904//EN"
 "http://www.w3.org/TR/2001/REC-SVG-20010904/DTD/svg10.dtd">
<svg version="1.0" xmlns="http://www.w3.org/2000/svg"
 width="370.000000pt" height="370.000000pt" viewBox="0 0 370.000000 370.000000"
 preserveAspectRatio="xMidYMid meet">

<g transform="translate(0.000000,370.000000) scale(0.100000,-0.100000)"
fill="#000000" stroke="none">
<path d="M1884 3644 c-19 -15 -19 -15 1 -6 11 5 27 12 35 15 13 5 13 6 -1 6
-8 1 -24 -6 -35 -15z"/>
<path d="M1846 3585 c-9 -26 -7 -32 5 -12 6 10 9 21 6 23 -2 3 -7 -2 -11 -11z"/>
<path d="M1816 3515 c-9 -26 -7 -32 5 -12 6 10 9 21 6 23 -2 3 -7 -2 -11 -11z"/>
<path d="M1261 3518 c2 -2 26 -23 52 -48 26 -24 47 -41 47 -38 0 10 -84 88
-94 88 -5 0 -7 -1 -5 -2z"/>
<path d="M1205 3499 c-4 -6 -5 -12 -2 -15 2 -3 7 2 10 11 7 17 1 20 -8 4z"/>
<path d="M1915 3470 c-3 -5 -1 -10 4 -10 6 0 11 5 11 10 0 6 -2 10 -4 10 -3 0
-8 -4 -11 -10z"/>
<path d="M1200 3441 c0 -9 99 -106 102 -100 2 2 -21 27 -49 55 -29 28 -53 48
-53 45z"/>
<path d="M1392 3405 c15 -16 29 -27 31 -24 3 2 -10 15 -27 28 l-31 24 27 -28z"/>
<path d="M1269 3283 c-13 -16 -12 -17 4 -4 9 7 17 15 17 17 0 8 -8 3 -21 -13z"/>
<path d="M2375 3220 c33 -33 62 -60 64 -60 3 0 -21 27 -54 60 -33 33 -62 60
-64 60 -3 0 21 -27 54 -60z"/>
<path d="M1194 3218 l-29 -33 33 29 c17 17 32 31 32 33 0 8 -8 1 -36 -29z"/>
<path d="M1134 3148 l-19 -23 23 19 c21 18 27 26 19 26 -2 0 -12 -10 -23 -22z"/>
<path d="M2440 3146 c0 -2 8 -10 18 -17 15 -13 16 -12 3 4 -13 16 -21 21 -21
13z"/>
<path d="M1099 3103 c-13 -16 -12 -17 4 -4 9 7 17 15 17 17 0 8 -8 3 -21 -13z"/>
<path d="M1070 3060 c-6 -11 -8 -20 -6 -20 3 0 10 9 16 20 6 11 8 20 6 20 -3
0 -10 -9 -16 -20z"/>
<path d="M1030 2990 c-11 -22 -18 -40 -15 -40 2 0 14 18 25 40 11 22 18 40 15
40 -2 0 -14 -18 -25 -40z"/>
<path d="M1999 2992 c-26 -24 -32 -36 -32 -72 0 -36 6 -48 32 -72 52 -47 126
-36 156 22 19 37 19 71 0 96 -13 18 -14 18 -8 -5 4 -17 1 -28 -12 -37 -15 -11
-24 -10 -56 6 -42 22 -53 46 -31 73 26 30 -13 21 -49 -11z"/>
<path d="M992 2915 c-17 -37 -14 -45 4 -12 9 16 14 31 11 33 -2 2 -9 -7 -15
-21z"/>
<path d="M1385 2834 c-27 -29 -34 -89 -14 -126 15 -27 74 -51 110 -43 67 15
102 107 58 156 -20 24 -20 24 -9 2 13 -28 -2 -63 -28 -63 -10 0 -33 13 -52 29
-31 26 -34 32 -22 50 19 32 -13 28 -43 -5z"/>
<path d="M951 2794 c0 -11 3 -14 6 -6 3 7 2 16 -1 19 -3 4 -6 -2 -5 -13z"/>
<path d="M941 2754 c0 -11 3 -14 6 -6 3 7 2 16 -1 19 -3 4 -6 -2 -5 -13z"/>
<path d="M931 2714 c0 -11 3 -14 6 -6 3 7 2 16 -1 19 -3 4 -6 -2 -5 -13z"/>
<path d="M922 2665 c0 -16 2 -22 5 -12 2 9 2 23 0 30 -3 6 -5 -1 -5 -18z"/>
<path d="M913 2585 c0 -27 2 -38 4 -22 2 15 2 37 0 50 -2 12 -4 0 -4 -28z"/>
<path d="M1995 2605 c-27 -7 -75 -25 -105 -39 l-55 -26 115 0 c183 0 429 -26
535 -56 28 -7 134 64 159 108 17 30 15 29 -18 -10 -21 -23 -57 -53 -80 -67
l-43 -25 -79 18 c-70 17 -79 22 -78 41 1 12 -1 19 -5 16 -3 -4 -6 -12 -6 -18
0 -14 -45 -19 -60 -7 -5 4 -18 6 -28 5 -9 -2 -15 0 -13 3 2 4 -1 14 -8 23 -13
19 -71 23 -59 5 5 -7 0 -3 -9 7 -13 13 -18 15 -18 6 0 -9 -3 -10 -8 -4 -4 6
-14 10 -22 10 -8 -1 -22 2 -31 6 -9 5 -21 3 -29 -4 -10 -10 -12 -8 -7 6 4 9 5
17 4 16 -1 0 -24 -6 -52 -14z"/>
<path d="M2235 2590 c-8 -13 14 -42 25 -35 5 3 11 1 15 -5 11 -18 23 -10 21
15 -1 23 -2 24 -13 8 -12 -16 -18 -11 -14 11 1 5 -6 3 -15 -5 -16 -12 -17 -12
-11 4 7 19 2 23 -8 7z"/>
<path d="M2306 2572 c-2 -4 -1 -14 4 -22 7 -11 9 -9 7 8 -1 24 -3 26 -11 14z"/>
<path d="M973 2423 c9 -2 23 -2 30 0 6 3 -1 5 -18 5 -16 0 -22 -2 -12 -5z"/>
<path d="M2635 2410 c10 -11 20 -20 23 -20 3 0 -3 9 -13 20 -10 11 -20 20 -23
20 -3 0 3 -9 13 -20z"/>
<path d="M1058 2413 c7 -3 16 -2 19 1 4 3 -2 6 -13 5 -11 0 -14 -3 -6 -6z"/>
<path d="M1095 2400 c-3 -5 -2 -10 4 -10 5 0 13 5 16 10 3 6 2 10 -4 10 -5 0
-13 -4 -16 -10z"/>
<path d="M964 2317 c-17 -17 -55 -52 -84 -76 -59 -50 -96 -102 -104 -146 -4
-21 -2 -18 10 12 26 71 165 206 194 188 6 -3 7 1 4 10 -4 8 -1 22 6 30 22 27
6 16 -26 -18z"/>
<path d="M1600 2266 c0 -2 8 -10 18 -17 15 -13 16 -12 3 4 -13 16 -21 21 -21
13z"/>
<path d="M1043 2150 c3 -8 20 -58 36 -112 17 -53 43 -122 57 -154 25 -58 23
-71 -13 -75 -7 -1 -22 -3 -33 -4 -11 -1 -30 -3 -42 -4 -49 -4 44 -31 106 -32
l61 0 -35 -13 c-42 -16 -178 -14 -232 3 -99 31 -163 116 -178 238 l-9 68 4
-71 c2 -39 10 -87 18 -107 20 -46 77 -108 121 -132 l36 -20 0 -313 c0 -352 -2
-342 75 -410 46 -40 47 -42 91 -204 24 -90 56 -212 71 -273 14 -60 31 -115 37
-121 6 -6 34 -19 61 -28 28 -10 66 -25 85 -33 35 -16 92 -20 210 -14 36 2 72
1 81 -3 17 -7 137 -1 145 7 3 3 6 14 7 25 1 17 4 19 16 9 12 -10 13 -9 6 2 -6
11 -3 13 13 9 12 -4 20 -2 16 3 -3 5 6 9 20 9 14 0 26 6 26 13 0 8 3 9 8 1 4
-6 14 -11 22 -11 12 0 16 11 15 44 -2 47 -9 63 -19 38 -3 -9 -2 -14 3 -11 10
6 7 -52 -3 -62 -4 -3 -5 5 -2 20 4 27 -14 54 -28 41 -4 -4 -4 1 0 11 5 14 4
17 -4 12 -7 -4 -12 -3 -12 2 0 5 -6 9 -12 10 -58 5 -58 6 -72 190 l-7 93 57
-3 57 -3 18 -65 c18 -64 76 -296 84 -335 4 -18 3 -18 -9 -3 -11 15 -13 15 -24
0 -10 -15 -11 -15 -5 3 3 11 3 17 -1 14 -4 -4 -9 -16 -11 -28 -3 -15 0 -19 8
-14 9 5 9 3 1 -8 -11 -13 -17 -75 -7 -65 3 3 14 -4 26 -15 11 -10 31 -19 45
-19 25 0 59 -15 80 -37 7 -7 19 -13 25 -14 7 0 21 -3 32 -6 23 -6 180 -5 213
2 13 2 22 -1 22 -8 0 -13 37 -16 56 -5 5 3 17 4 27 3 9 -2 17 1 17 5 0 5 10 7
21 5 12 -3 19 -2 16 2 -9 9 40 53 61 55 9 0 22 2 27 3 6 2 15 4 20 5 6 1 14 2
18 1 5 -1 5 4 1 11 -10 16 -9 7 -23 153 -13 143 -28 329 -37 476 l-7 107 34
42 34 42 1 277 0 276 -5 -271 -6 -271 -29 -42 c-29 -41 -29 -41 -50 -23 -12
11 -28 22 -36 26 -8 4 -3 -2 12 -14 34 -26 33 -23 58 -370 27 -388 28 -365
-18 -389 -103 -52 -408 -56 -459 -5 -9 8 -27 22 -40 31 -20 13 -53 61 -58 83
-1 3 -6 16 -13 30 -12 28 -102 340 -109 382 -4 19 6 48 32 95 29 53 32 64 15
48 -27 -24 -55 -78 -65 -123 l-7 -34 -126 7 c-70 3 -149 11 -177 16 -27 5 -66
12 -85 15 -19 3 -83 21 -142 40 -221 71 -329 127 -379 197 l-29 40 0 287 c0
235 3 290 14 299 11 9 17 8 28 -8 8 -12 18 -18 21 -14 4 3 7 -2 8 -13 0 -11 3
-14 6 -6 4 10 8 10 21 0 13 -11 14 -11 8 0 -7 12 -4 12 15 1 27 -14 73 -16
141 -5 37 6 53 4 77 -10 16 -10 27 -22 24 -27 -3 -6 -1 -7 4 -4 6 4 16 0 23
-8 7 -8 19 -15 27 -15 8 0 11 -5 7 -12 -4 -7 -4 -10 1 -6 4 4 15 2 23 -5 13
-10 14 -9 7 3 -8 13 -7 13 9 0 67 -54 266 -21 460 77 39 20 78 43 86 52 8 9
22 17 30 19 8 2 19 10 23 18 5 8 13 11 19 8 6 -4 8 -3 5 2 -3 6 21 21 54 33
92 37 64 34 -52 -5 -184 -62 -401 -118 -460 -118 -46 -1 -70 6 -133 38 -133
68 -250 193 -350 376 -46 82 -65 111 -53 80z m172 -1577 c2 -10 4 -24 4 -31 1
-8 6 -10 14 -6 6 4 9 3 4 -1 -4 -5 0 -20 10 -34 13 -20 13 -23 1 -14 -8 7 -18
10 -22 6 -4 -4 -4 1 0 11 5 12 4 17 -3 13 -5 -3 -10 -1 -10 6 0 7 -4 28 -7 47
-4 19 -4 32 -1 28 4 -3 8 -14 10 -25z m1435 -297 c0 -3 -4 -8 -10 -11 -5 -3
-10 -1 -10 4 0 6 5 11 10 11 6 0 10 -2 10 -4z"/>
<path d="M1043 1323 c4 -3 -1 -16 -10 -27 -18 -21 -18 -21 4 -2 20 16 23 36 6
36 -4 0 -3 -3 0 -7z"/>
<path d="M1109 1313 c-13 -16 -12 -17 4 -4 9 7 17 15 17 17 0 8 -8 3 -21 -13z"/>
<path d="M1064 1286 c1 -8 5 -18 8 -22 4 -3 5 1 4 10 -1 8 -5 18 -8 22 -4 3
-5 -1 -4 -10z"/>
<path d="M1119 1295 c-2 -7 -6 -42 -8 -62 -1 -15 -3 -15 -10 -4 -5 8 -7 21 -4
30 4 13 3 13 -5 2 -6 -8 -8 -20 -5 -28 9 -24 -5 -14 -26 20 -16 23 -21 26 -19
12 2 -11 -2 -19 -9 -18 -15 3 -10 -26 6 -36 7 -5 26 -7 41 -6 22 2 27 -1 23
-14 -4 -14 -3 -14 6 -1 9 13 11 13 11 0 0 -13 1 -13 10 0 9 13 10 13 10 0 0
-13 1 -13 10 0 9 13 10 13 10 0 0 -12 2 -12 9 -1 5 8 11 9 15 3 3 -5 0 -12 -8
-15 -8 -3 -13 -17 -11 -36 1 -17 -1 -34 -5 -36 -5 -3 -7 3 -5 12 1 10 -1 23
-5 28 -5 6 -9 13 -9 18 -1 4 -3 7 -6 7 -3 0 -7 0 -10 0 -3 0 -1 -10 6 -22 8
-17 5 -16 -13 6 -21 25 -25 26 -37 13 -7 -9 -20 -13 -29 -10 -13 4 -12 2 3
-11 11 -10 13 -15 5 -11 -8 4 -1 -7 17 -23 17 -17 29 -33 26 -35 -5 -6 52 -38
63 -36 4 0 10 -3 13 -9 8 -12 137 -86 186 -106 38 -16 215 -65 265 -73 49 -8
180 -9 180 -1 0 4 3 7 8 7 28 -5 41 4 47 31 4 16 12 28 18 27 6 -1 11 5 12 13
1 8 7 14 14 12 9 -2 10 2 2 15 -6 11 -6 24 0 36 6 10 8 23 5 30 -2 7 -5 4 -5
-6 -1 -10 -6 -15 -11 -12 -6 4 -7 11 -4 17 5 7 2 8 -5 3 -9 -5 -10 -10 -2 -18
20 -20 11 -30 -10 -11 -15 14 -20 15 -17 4 2 -8 -2 -14 -9 -13 -6 1 -10 -5 -8
-15 2 -9 4 -21 4 -25 1 -5 6 -5 12 -2 6 4 8 14 5 22 -3 8 -1 11 4 8 13 -8 7
-42 -9 -58 -8 -8 -11 -8 -9 -1 2 7 -1 12 -7 13 -5 1 -10 -3 -10 -8 0 -5 -3
-12 -6 -16 -4 -3 -6 2 -6 12 0 43 -3 49 -13 33 -5 -8 -10 -10 -10 -3 0 6 -8
10 -17 8 -10 -1 -16 -9 -15 -16 2 -8 0 -11 -4 -6 -4 4 -9 18 -11 30 -2 17 -1
19 7 7 9 -13 10 -13 10 0 0 13 1 13 10 0 9 -13 10 -13 10 0 0 13 1 13 10 0 9
-13 10 -13 10 0 1 9 6 6 16 -10 10 -17 13 -18 8 -5 -3 11 -7 26 -7 32 0 10 -3
10 -16 0 -12 -10 -14 -9 -8 8 7 18 6 19 -6 3 -8 -10 -17 -15 -20 -11 -4 3 -1
13 6 21 8 11 9 14 0 9 -7 -4 -16 0 -22 10 -9 15 -10 13 -7 -10 4 -24 2 -27
-15 -22 -15 5 -19 1 -20 -17 0 -13 -3 -17 -6 -10 -3 7 -2 25 2 39 5 22 8 24
16 12 9 -12 10 -12 6 1 -2 10 -17 15 -48 15 -24 0 -44 5 -44 10 0 6 8 9 17 9
10 -1 16 2 13 6 -6 9 -46 7 -64 -4 -11 -7 -13 -5 -8 10 6 17 5 17 -5 2 -11
-15 -13 -15 -25 0 -12 15 -13 15 -19 -6 -5 -17 -9 -20 -15 -11 -5 8 -2 20 7
30 11 12 12 19 4 24 -6 4 -9 1 -8 -7 2 -8 -5 -12 -17 -10 -15 2 -16 0 -7 -6
11 -7 11 -10 -2 -15 -10 -4 -16 -1 -16 8 0 8 -5 15 -11 15 -5 0 -8 4 -5 8 3 5
-1 9 -9 9 -8 0 -14 -3 -13 -6 0 -3 0 -13 -2 -21 -1 -11 -4 -9 -9 5 -5 11 -4
25 1 32 6 7 4 14 -4 19 -7 4 -10 4 -6 -1 4 -4 4 -13 -2 -19 -11 -14 11 -62 28
-59 7 2 9 -5 6 -15 -4 -10 -2 -13 3 -7 10 13 36 18 29 6 -3 -4 7 -7 23 -6 23
2 28 -1 24 -14 -4 -14 -3 -14 7 -1 10 13 11 13 7 0 -2 -8 0 -24 5 -35 7 -14 4
-13 -11 5 -11 14 -21 29 -21 34 0 6 -7 1 -15 -10 -15 -19 -15 -19 -8 1 6 18 5
19 -12 5 -14 -11 -17 -12 -11 -1 6 9 5 12 -5 9 -8 -3 -12 -12 -11 -19 2 -8 0
-10 -5 -6 -4 5 -9 13 -9 18 -1 5 -2 14 -3 20 0 5 -6 7 -11 4 -6 -4 -8 -10 -5
-15 3 -5 1 -11 -4 -15 -6 -3 -8 3 -6 14 2 11 -3 25 -11 32 -8 6 -14 17 -14 23
0 6 5 4 10 -4 5 -8 10 -10 10 -4 0 5 -5 15 -11 21 -8 8 -8 13 0 17 6 4 11 11
11 16 0 17 -50 -41 -53 -61 -2 -10 -9 -25 -17 -32 -10 -10 -11 -9 -4 3 8 15
13 31 16 62 1 9 5 15 9 12 4 -2 12 3 18 10 9 11 9 14 -1 12 -7 -1 -19 -5 -25
-9 -7 -5 -13 -4 -13 0 0 5 6 15 13 22 10 11 9 12 -3 5 -20 -12 -43 -11 -52 1
-5 6 -8 4 -8 -5 0 -13 -2 -13 -9 -1 -6 9 -6 22 0 32 5 10 5 20 1 23 -5 3 -9 0
-10 -7 0 -7 -3 -24 -5 -39 -2 -15 -1 -25 4 -23 4 3 10 1 14 -5 4 -6 12 -7 18
-3 7 4 4 -5 -5 -19 -10 -15 -14 -29 -9 -32 10 -7 33 49 24 58 -4 3 -1 6 5 6
15 0 15 -3 -2 -45 -14 -33 -13 -39 7 -36 12 2 8 -6 -10 -20 -9 -8 -14 -9 -10
-3 7 13 -16 38 -26 28 -3 -3 -4 1 -3 10 1 8 5 19 9 22 16 16 6 26 -11 11 -17
-16 -18 -14 -18 32 1 28 -3 49 -9 48 -5 -1 -8 5 -7 13 2 8 0 11 -5 7 -4 -5 -9
-13 -9 -18 -3 -22 -5 -23 -14 -9 -6 9 -5 19 2 28 9 10 8 12 -3 10 -8 -2 -13 3
-11 10 1 8 -2 11 -8 7 -6 -3 -7 -12 -3 -18 4 -7 9 -20 10 -31 3 -16 1 -17 -12
-6 -8 7 -13 16 -10 20 3 5 1 12 -5 15 -8 5 -7 12 2 23 12 15 11 16 -4 4 -10
-8 -17 -17 -16 -20 2 -20 -3 -25 -12 -12 -7 11 -10 11 -10 2 0 -7 -4 -11 -10
-7 -5 3 -7 13 -4 23 5 14 4 15 -5 2 -8 -11 -10 -5 -7 28 2 23 2 42 0 42 -2 0
-5 -2 -5 -5z m-51 -67 c11 -14 10 -16 -5 -13 -10 2 -22 4 -27 4 -5 1 -3 8 4
16 7 9 13 14 14 13 1 -2 7 -11 14 -20z m152 -68 c0 7 3 10 7 7 3 -4 12 -2 20
4 10 9 13 7 14 -7 2 -34 -3 -69 -10 -77 -4 -4 -6 7 -4 25 3 24 2 29 -6 18 -5
-8 -7 -18 -4 -24 3 -5 1 -6 -6 -2 -9 6 -8 14 4 32 20 30 12 31 -15 2 -19 -21
-21 -21 -14 -3 7 17 6 18 -8 7 -13 -10 -15 -9 -13 10 4 34 4 35 20 14 10 -13
15 -15 15 -6z m-116 -8 c3 -5 -1 -9 -9 -9 -8 0 -12 4 -9 9 3 4 7 8 9 8 2 0 6
-4 9 -8z m248 -74 c-6 -6 -7 0 -4 19 5 21 7 23 10 9 2 -10 0 -22 -6 -28z m52
7 c-4 -8 -2 -21 4 -28 11 -14 12 -48 1 -41 -5 2 -5 12 -2 22 6 15 5 16 -13 2
-17 -14 -18 -13 -7 1 7 9 10 19 7 22 -7 7 2 37 10 37 3 0 3 -7 0 -15z m87 -17
c11 -20 10 -21 -3 -11 -8 7 -18 10 -22 6 -4 -4 -4 0 0 10 8 22 11 22 25 -5z
m99 -61 c0 -10 5 -15 10 -12 7 4 7 12 0 25 -11 21 -13 37 -3 27 3 -4 13 -1 22
5 9 7 13 8 9 4 -13 -15 12 -35 38 -30 22 4 24 2 19 -23 l-6 -28 15 30 c13 25
15 26 9 5 -3 -14 -6 -31 -6 -37 0 -10 -4 -10 -14 -1 -8 6 -12 21 -9 32 5 21 5
21 -9 2 -13 -17 -13 -22 3 -40 14 -18 13 -17 -9 2 -14 12 -29 19 -34 15 -4 -5
-5 -3 -2 4 4 6 2 22 -3 35 -10 23 -10 23 -6 1 2 -13 0 -26 -5 -29 -6 -3 -5
-12 3 -22 9 -12 6 -11 -10 2 -12 11 -22 27 -22 37 0 10 -4 21 -10 24 -5 3 -10
14 -10 23 1 23 29 -26 30 -51z m-60 43 c0 -5 -2 -10 -4 -10 -3 0 -8 5 -11 10
-3 6 -1 10 4 10 6 0 11 -4 11 -10z m207 -82 c-3 -8 -6 -5 -6 6 -1 11 2 17 5
13 3 -3 4 -12 1 -19z m154 -20 c-11 -11 -13 -10 -7 0 4 7 2 21 -5 30 -12 15
-11 15 6 0 16 -15 17 -20 6 -30z m-240 5 c13 -16 12 -17 -3 -4 -17 13 -22 21
-14 21 2 0 10 -8 17 -17z m89 -9 c0 -8 -19 -13 -24 -6 -3 5 1 9 9 9 8 0 15 -2
15 -3z"/>
<path d="M1637 1003 c3 -7 6 -13 8 -13 2 0 5 6 8 13 3 8 -1 14 -8 14 -7 0 -11
-6 -8 -14z"/>
<path d="M1030 1196 c0 -3 7 -12 16 -21 12 -12 19 -13 30 -4 8 6 14 17 14 23
0 6 -5 4 -10 -4 -9 -13 -10 -13 -10 0 0 13 -1 13 -10 0 -6 -10 -10 -11 -10 -2
0 6 -4 12 -10 12 -5 0 -10 -2 -10 -4z"/>
<path d="M1940 1035 c-7 -8 -9 -15 -6 -15 4 0 1 -10 -5 -22 -9 -18 -9 -20 0
-12 7 6 13 18 14 25 2 8 6 20 10 27 11 17 2 15 -13 -3z"/>
<path d="M1987 882 c-24 -26 -20 -111 4 -96 5 3 6 -1 3 -9 -3 -8 0 -18 5 -22
6 -3 8 -11 5 -17 -5 -7 -2 -9 7 -6 11 4 15 -1 15 -21 -1 -16 4 -25 12 -23 8 1
11 -1 8 -6 -7 -11 15 -72 26 -72 4 0 5 -6 2 -14 -3 -8 0 -17 5 -21 6 -3 9 -11
6 -16 -4 -5 -1 -9 5 -9 6 0 8 -4 5 -10 -3 -5 -1 -10 4 -10 6 0 11 -9 11 -21 0
-11 4 -17 10 -14 6 4 7 -1 3 -11 -5 -13 -3 -15 8 -9 11 7 11 5 -1 -10 -8 -10
-10 -16 -4 -12 6 3 20 0 30 -8 18 -15 18 -15 -1 -9 -18 5 -18 4 -3 -6 10 -6
21 -11 25 -11 5 0 14 -6 22 -12 11 -9 13 -9 8 0 -4 6 -1 14 5 16 10 4 10 6 0
6 -7 1 -11 5 -8 10 3 5 -1 24 -10 42 -10 23 -13 26 -9 9 13 -52 13 -67 -1 -67
-10 0 -11 4 -4 11 12 12 14 29 2 22 -5 -3 -8 13 -8 35 1 27 -3 38 -11 35 -7
-3 -15 0 -19 6 -4 6 -3 8 4 4 6 -3 13 -2 16 3 3 5 -4 11 -16 14 -17 5 -19 9
-9 21 9 11 9 16 0 22 -8 5 -9 3 -4 -6 5 -9 4 -11 -4 -6 -9 6 -9 11 1 24 11 13
11 14 -1 7 -11 -6 -13 -4 -8 8 3 8 -1 21 -8 27 -8 7 -13 17 -12 23 1 7 -6 11
-16 11 -15 -2 -16 1 -5 13 10 12 9 14 -7 11 -11 -1 -20 2 -20 7 -3 28 -27 95
-36 101 -8 4 -8 0 0 -14 6 -11 11 -24 11 -29 -1 -4 -7 3 -15 17 -10 19 -11 28
-2 39 10 12 9 13 -1 7 -11 -7 -13 -1 -9 28 6 42 5 42 -16 18z m6 -17 c-3 -9
-8 -14 -10 -11 -3 3 -2 9 2 15 9 16 15 13 8 -4z"/>
<path d="M2063 731 c0 -11 5 -18 9 -15 4 3 5 11 1 19 -7 21 -12 19 -10 -4z"/>
</g>
</svg>
